<?xml version="1.0" standalone="no"?><!DOCTYPE svg PUBLIC "-//W3C//DTD SVG 1.1//EN" "http://www.w3.org/Graphics/SVG/1.1/DTD/svg11.dtd"><svg t="1624497573508" class="icon" viewBox="0 0 1024 1024" version="1.1" xmlns="http://www.w3.org/2000/svg" p-id="6498" xmlns:xlink="http://www.w3.org/1999/xlink" width="200" height="200"><defs><style type="text/css"></style></defs><path d="M969.7792 267.4176V221.696c0-50.8928-41.2672-92.16-92.16-92.16H150.1696c-50.8928 0-92.16 41.2672-92.16 92.16v45.7728h911.7696zM748.6976 533.1456h-50.8416v42.1376h50.8416c11.6224 0 21.0944-9.472 21.0944-21.0944s-9.472-21.0432-21.0944-21.0432z" fill="#FF623E" p-id="6499"></path><path d="M58.0096 328.8576v466.688c0 50.8928 41.2672 92.16 92.16 92.16h727.5008c50.8928 0 92.16-41.2672 92.16-92.16V328.8576H58.0096z m368.0768 192.4096l-84.3264 187.136a34.47296 34.47296 0 0 1-31.3856 20.2752h-0.256a34.46784 34.46784 0 0 1-31.3344-20.736l-81.4592-187.0848a30.76608 30.76608 0 0 1 15.9232-40.448c15.5648-6.8096 33.6384 0.3584 40.448 15.9232l57.1392 131.1744 59.2896-131.5328a30.75072 30.75072 0 0 1 40.6528-15.4112 30.8224 30.8224 0 0 1 15.3088 40.704zM547.84 708.5056c0 16.9472-13.7728 30.72-30.72 30.72s-30.72-13.7728-30.72-30.72V502.4256c0-16.9472 13.7728-30.72 30.72-30.72s30.72 13.7728 30.72 30.72v206.08z m200.8576-71.7824h-50.8416v71.7824c0 16.9472-13.7728 30.72-30.72 30.72s-30.72-13.7728-30.72-30.72V502.4256c0-16.9472 13.7728-30.72 30.72-30.72h81.5616c45.5168 0 82.5344 37.0176 82.5344 82.5344 0 45.4656-37.0176 82.4832-82.5344 82.4832z" fill="#FF623E" p-id="6500"></path></svg>