<?xml version="1.0" standalone="no"?><!DOCTYPE svg PUBLIC "-//W3C//DTD SVG 1.1//EN" "http://www.w3.org/Graphics/SVG/1.1/DTD/svg11.dtd"><svg t="1624497509631" class="icon" viewBox="0 0 1024 1024" version="1.1" xmlns="http://www.w3.org/2000/svg" p-id="5850" xmlns:xlink="http://www.w3.org/1999/xlink" width="200" height="200"><defs><style type="text/css"></style></defs><path d="M57.2416 279.7568a454.2464 174.3872 0 1 0 908.4928 0 454.2464 174.3872 0 1 0-908.4928 0Z" fill="#FFD05C" p-id="5851"></path><path d="M57.2416 512.5632a454.2464 174.3872 0 1 0 908.4928 0 454.2464 174.3872 0 1 0-908.4928 0Z" fill="#FFD05C" p-id="5852"></path><path d="M173.312 396.1344a338.176 57.9584 0 1 0 676.352 0 338.176 57.9584 0 1 0-676.352 0Z" fill="#FCA235" p-id="5853"></path><path d="M57.2416 745.4208a454.2464 174.3872 0 1 0 908.4928 0 454.2464 174.3872 0 1 0-908.4928 0Z" fill="#FFD05C" p-id="5854"></path><path d="M173.312 628.992c83.1488 35.584 203.8784 57.9584 338.176 57.9584 134.3488 0 255.0272-22.3744 338.176-57.9584-83.1488-35.584-203.8784-57.9584-338.176-57.9584-134.3488 0-255.0272 22.3744-338.176 57.9584z" fill="#FCA235" p-id="5855"></path><path d="M247.2448 269.7216a264.2432 85.9648 0 1 0 528.4864 0 264.2432 85.9648 0 1 0-528.4864 0Z" fill="#FFFFFF" p-id="5856"></path></svg>