<?xml version="1.0" standalone="no"?><!DOCTYPE svg PUBLIC "-//W3C//DTD SVG 1.1//EN" "http://www.w3.org/Graphics/SVG/1.1/DTD/svg11.dtd"><svg t="1624497181524" class="icon" viewBox="0 0 1024 1024" version="1.1" xmlns="http://www.w3.org/2000/svg" p-id="2364" xmlns:xlink="http://www.w3.org/1999/xlink" width="200" height="200"><defs><style type="text/css"></style></defs><path d="M516.928 978.304c-111.424 0-219.648-38.848-305.28-109.696-11.84-9.792-23.296-20.224-33.984-30.976-90.56-90.624-140.352-211.072-140.288-339.2 0.064-128.128 49.984-248.512 140.608-339.072 90.56-90.496 210.944-140.288 338.944-140.288 0.128 0 0.192 0 0.256 0 128.128 0.064 248.512 49.984 339.072 140.672 183.616 183.808 188.608 476.416 11.328 666.176-3.776 4.032-7.68 8.128-11.648 12.096-8.256 8.256-21.632 8.256-29.952 0-8.256-8.256-8.256-21.632 0-29.952 3.648-3.648 7.168-7.296 10.688-11.008 161.664-172.992 157.056-439.808-10.368-607.424-82.56-82.624-192.32-128.192-309.12-128.256-0.064 0-0.128 0-0.192 0-116.736 0-226.496 45.44-309.056 127.936-82.624 82.56-128.192 192.32-128.256 309.12-0.064 116.8 45.376 226.624 127.936 309.248 9.792 9.792 20.224 19.328 31.04 28.288 78.016 64.512 176.704 99.968 278.336 99.968 1.28 0 2.624-0.064 3.904 0 11.584 0 21.056 9.344 21.184 20.992 0.128 11.712-9.28 21.248-20.992 21.312C519.68 978.304 518.272 978.304 516.928 978.304zM518.72 578.24C429.248 578.24 356.48 505.472 356.48 416s72.768-162.24 162.24-162.24 162.24 72.768 162.24 162.24S608.128 578.24 518.72 578.24zM518.72 296.128c-66.112 0-119.872 53.76-119.872 119.872s53.824 119.872 119.872 119.872S638.592 482.112 638.592 416 584.832 296.128 518.72 296.128zM206.592 852.352c-1.088 0-2.176-0.064-3.328-0.256-11.52-1.792-19.392-12.672-17.6-24.192 26.368-167.424 168.64-288.96 338.368-288.96 161.088 0 302.144 116.032 335.424 275.84 2.368 11.456-4.992 22.656-16.384 25.024-11.456 2.432-22.656-4.928-25.024-16.384-29.184-140.288-152.768-242.112-293.952-242.112-148.8 0-273.536 106.496-296.576 253.184C225.792 844.928 216.832 852.352 206.592 852.352z" p-id="2365"></path></svg>